<svg width="401" height="48" viewBox="0 0 401 48" fill="none" xmlns="http://www.w3.org/2000/svg">
<path d="M0.248 48V3.84H9.464V39.68H28.536V48H0.248ZM34.4785 8.64V-3.8147e-06H43.6945V8.64H34.4785ZM34.6705 48V14.208H43.5025V48H34.6705ZM49.277 15.552L50.173 14.208H57.789L65.597 40.32H66.237L74.045 14.208H81.661L82.557 15.552L72.381 48H59.453L49.277 15.552ZM87.7835 37.632V24.576C87.7835 17.664 91.2395 14.208 98.1515 14.208H106.472C113.384 14.208 116.84 17.664 116.84 24.576V34.368H96.6155V38.272C96.6155 39.6373 97.2982 40.32 98.6635 40.32H115.56V45.12L111.72 48H98.1515C91.2395 48 87.7835 44.544 87.7835 37.632ZM96.6155 27.584H108.008V23.936C108.008 22.5707 107.325 21.888 105.96 21.888H98.6635C97.2982 21.888 96.6155 22.5707 96.6155 23.936V27.584ZM137.465 46.272L150.585 3.84H164.665L177.785 46.272L176.633 48H168.953L166.265 39.04H148.985L146.297 48H138.617L137.465 46.272ZM151.481 30.72H163.769L158.137 12.16H157.113L151.481 30.72ZM183.29 37.632V14.208H192.122V38.272C192.122 39.6373 192.804 40.32 194.17 40.32H203.514V14.208H212.346V48H193.658C186.746 48 183.29 44.544 183.29 37.632ZM221.034 37.632V24.576C221.034 17.664 224.49 14.208 231.402 14.208H243.306L247.146 17.088V21.888H231.914C230.548 21.888 229.866 22.5707 229.866 23.936V38.272C229.866 39.6373 230.548 40.32 231.914 40.32H247.146V45.12L243.306 48H231.402C224.49 48 221.034 44.544 221.034 37.632ZM254.415 37.632V3.84H263.247V14.208H274.255V21.888H263.247V38.272C263.247 39.6373 263.929 40.32 265.295 40.32H274.895V45.12L271.055 48H264.783C257.871 48 254.415 44.544 254.415 37.632ZM281.604 8.64V-3.8147e-06H290.82V8.64H281.604ZM281.796 48V14.208H290.628V48H281.796ZM299.346 37.632V24.576C299.346 17.664 302.802 14.208 309.714 14.208H318.674C325.586 14.208 329.042 17.664 329.042 24.576V37.632C329.042 44.544 325.586 48 318.674 48H309.714C302.802 48 299.346 44.544 299.346 37.632ZM308.178 38.272C308.178 39.6373 308.861 40.32 310.226 40.32H318.162C319.527 40.32 320.21 39.6373 320.21 38.272V23.936C320.21 22.5707 319.527 21.888 318.162 21.888H310.226C308.861 21.888 308.178 22.5707 308.178 23.936V38.272ZM337.733 48V14.208H356.421C363.333 14.208 366.789 17.664 366.789 24.576V48H357.957V23.936C357.957 22.5707 357.274 21.888 355.909 21.888H346.565V48H337.733ZM374.581 45.12V40.32H389.301C390.752 40.32 391.477 39.5093 391.477 37.888C391.477 36.224 390.88 35.2853 389.685 35.072L382.773 33.92C377.312 32.9813 374.581 29.824 374.581 24.448C374.581 17.6213 378.037 14.208 384.949 14.208H394.869L398.709 17.088V21.888H385.461C384.01 21.888 383.285 22.6987 383.285 24.32C383.285 26.0267 383.946 26.9867 385.269 27.2L392.117 28.352C397.536 29.248 400.245 32.3627 400.245 37.696C400.245 44.5653 396.768 48 389.813 48H378.421L374.581 45.12Z" fill="#F5FBF2"/>
</svg>
